<svg width="128" height="128" viewBox="0 0 128 128" xmlns="http://www.w3.org/2000/svg">
  <defs>
    <linearGradient id="grad1" x1="0%" y1="0%" x2="100%" y2="100%">
      <stop offset="0%" style="stop-color:#667eea;stop-opacity:1" />
      <stop offset="100%" style="stop-color:#764ba2;stop-opacity:1" />
    </linearGradient>
  </defs>
  
  <!-- Background circle -->
  <circle cx="64" cy="64" r="60" fill="url(#grad1)"/>
  
  <!-- Lightbulb outline -->
  <path d="M 64 25 C 52 25 42 35 42 47 C 42 55 46 62 52 66 L 52 75 C 52 78 54 80 57 80 L 71 80 C 74 80 76 78 76 75 L 76 66 C 82 62 86 55 86 47 C 86 35 76 25 64 25 Z" 
        fill="none" stroke="white" stroke-width="3" stroke-linecap="round" stroke-linejoin="round"/>
  
  <!-- Lightbulb base -->
  <rect x="57" y="80" width="14" height="8" rx="2" fill="white" opacity="0.9"/>
  <rect x="59" y="88" width="10" height="4" rx="1" fill="white" opacity="0.8"/>
  
  <!-- Brain inside lightbulb -->
  <path d="M 58 45 Q 56 42 58 40 Q 60 38 62 40 Q 64 38 66 40 Q 68 38 70 40 Q 72 42 70 45 Q 72 48 70 50 Q 68 52 66 50 Q 64 52 62 50 Q 60 52 58 50 Q 56 48 58 45 Z" 
        fill="white" opacity="0.95"/>
  
  <!-- Brain details -->
  <path d="M 60 43 Q 62 41 64 43 M 64 43 Q 66 41 68 43" 
        stroke="url(#grad1)" stroke-width="1.5" fill="none" stroke-linecap="round"/>
  
  <!-- Sparkle effect -->
  <circle cx="50" cy="35" r="2" fill="white" opacity="0.8"/>
  <circle cx="78" cy="38" r="1.5" fill="white" opacity="0.6"/>
  <circle cx="72" cy="28" r="1" fill="white" opacity="0.7"/>
</svg>
